<?xml version="1.0" encoding="UTF-8" standalone="no"?>
<!DOCTYPE svg PUBLIC "-//W3C//DTD SVG 1.1//EN"
 "http://www.w3.org/Graphics/SVG/1.1/DTD/svg11.dtd">
<!-- Generated by graphviz version 2.47.0 (20210316.0004)
 -->
<!-- Title: dependencies Pages: 1 -->
<svg width="2786pt" height="211pt"
 viewBox="0.00 0.00 2786.00 211.00" xmlns="http://www.w3.org/2000/svg" xmlns:xlink="http://www.w3.org/1999/xlink">
<g id="graph0" class="graph" transform="scale(1 1) rotate(0) translate(4 207)">
<title>dependencies</title>
<polygon fill="white" stroke="transparent" points="-4,4 -4,-207 2782,-207 2782,4 -4,4"/>
<text text-anchor="start" x="1368.01" y="-42.4" font-family="Times-12" font-weight="bold" font-size="14.00">Legend</text>
<polygon fill="#ffffb3" stroke="transparent" points="1155,-10 1155,-30 1175,-30 1175,-10 1155,-10"/>
<text text-anchor="start" x="1178.63" y="-15.4" font-family="Times-12" font-size="14.00"> &#160;Declarations</text>
<polygon fill="#8dd3c7" stroke="transparent" points="1268,-10 1268,-30 1288,-30 1288,-10 1268,-10"/>
<text text-anchor="start" x="1291.73" y="-15.4" font-family="Times-12" font-size="14.00"> &#160;Module</text>
<polygon fill="#80b1d3" stroke="transparent" points="1354,-10 1354,-30 1374,-30 1374,-10 1354,-10"/>
<text text-anchor="start" x="1377.78" y="-15.4" font-family="Times-12" font-size="14.00"> &#160;Bootstrap</text>
<polygon fill="#fdb462" stroke="transparent" points="1451,-10 1451,-30 1471,-30 1471,-10 1451,-10"/>
<text text-anchor="start" x="1474.67" y="-15.4" font-family="Times-12" font-size="14.00"> &#160;Providers</text>
<polygon fill="#fb8072" stroke="transparent" points="1547,-10 1547,-30 1567,-30 1567,-10 1547,-10"/>
<text text-anchor="start" x="1570.73" y="-15.4" font-family="Times-12" font-size="14.00"> &#160;Exports</text>
<g id="clust1" class="cluster">
<title>cluster_PublicModule</title>
<polygon fill="none" stroke="black" stroke-dasharray="1,5" points="8,-70 8,-195 2770,-195 2770,-70 8,-70"/>
</g>
<g id="clust17" class="cluster">
<title>cluster_PublicModule_providers</title>
<polygon fill="none" stroke="black" points="2149,-78 2149,-130 2762,-130 2762,-78 2149,-78"/>
</g>
<g id="clust2" class="cluster">
<title>cluster_PublicModule_declarations</title>
<polygon fill="none" stroke="black" points="296,-78 296,-130 2141,-130 2141,-78 296,-78"/>
</g>
<g id="clust14" class="cluster">
<title>cluster_PublicModule_imports</title>
<polygon fill="none" stroke="black" points="16,-78 16,-130 288,-130 288,-78 16,-78"/>
</g>
<!-- GraficasDinamicasComponent -->
<g id="node1" class="node">
<title>GraficasDinamicasComponent</title>
<polygon fill="#ffffb3" stroke="black" points="2133.11,-122 1944.89,-122 1944.89,-86 2133.11,-86 2133.11,-122"/>
<text text-anchor="middle" x="2039" y="-99.8" font-family="Times,serif" font-size="14.00">GraficasDinamicasComponent</text>
</g>
<!-- PublicModule -->
<g id="node12" class="node">
<title>PublicModule</title>
<polygon fill="#8dd3c7" stroke="black" points="1321.83,-187 1318.83,-191 1297.83,-191 1294.83,-187 1226.17,-187 1226.17,-151 1321.83,-151 1321.83,-187"/>
<text text-anchor="middle" x="1274" y="-164.8" font-family="Times,serif" font-size="14.00">PublicModule</text>
</g>
<!-- GraficasDinamicasComponent&#45;&gt;PublicModule -->
<g id="edge1" class="edge">
<title>GraficasDinamicasComponent&#45;&gt;PublicModule</title>
<path fill="none" stroke="black" d="M2039,-122.22C2039,-140.83 2039,-167 2039,-167 2039,-167 1331.85,-167 1331.85,-167"/>
<polygon fill="black" stroke="black" points="1331.85,-163.5 1321.85,-167 1331.85,-170.5 1331.85,-163.5"/>
</g>
<!-- GraficasEstaticasComponent -->
<g id="node2" class="node">
<title>GraficasEstaticasComponent</title>
<polygon fill="#ffffb3" stroke="black" points="1926.5,-122 1747.5,-122 1747.5,-86 1926.5,-86 1926.5,-122"/>
<text text-anchor="middle" x="1837" y="-99.8" font-family="Times,serif" font-size="14.00">GraficasEstaticasComponent</text>
</g>
<!-- GraficasEstaticasComponent&#45;&gt;PublicModule -->
<g id="edge2" class="edge">
<title>GraficasEstaticasComponent&#45;&gt;PublicModule</title>
<path fill="none" stroke="black" d="M1837,-122.02C1837,-139.37 1837,-163 1837,-163 1837,-163 1332,-163 1332,-163"/>
<polygon fill="black" stroke="black" points="1332,-159.5 1322,-163 1332,-166.5 1332,-159.5"/>
</g>
<!-- GrafoCompletoComponent -->
<g id="node3" class="node">
<title>GrafoCompletoComponent</title>
<polygon fill="#ffffb3" stroke="black" points="1729.7,-122 1560.3,-122 1560.3,-86 1729.7,-86 1729.7,-122"/>
<text text-anchor="middle" x="1645" y="-99.8" font-family="Times,serif" font-size="14.00">GrafoCompletoComponent</text>
</g>
<!-- GrafoCompletoComponent&#45;&gt;PublicModule -->
<g id="edge3" class="edge">
<title>GrafoCompletoComponent&#45;&gt;PublicModule</title>
<path fill="none" stroke="black" d="M1645,-122.01C1645,-138.05 1645,-159 1645,-159 1645,-159 1331.74,-159 1331.74,-159"/>
<polygon fill="black" stroke="black" points="1331.74,-155.5 1321.74,-159 1331.74,-162.5 1331.74,-155.5"/>
</g>
<!-- GrafoIncomingComponent -->
<g id="node4" class="node">
<title>GrafoIncomingComponent</title>
<polygon fill="#ffffb3" stroke="black" points="1542.63,-122 1375.37,-122 1375.37,-86 1542.63,-86 1542.63,-122"/>
<text text-anchor="middle" x="1459" y="-99.8" font-family="Times,serif" font-size="14.00">GrafoIncomingComponent</text>
</g>
<!-- GrafoIncomingComponent&#45;&gt;PublicModule -->
<g id="edge4" class="edge">
<title>GrafoIncomingComponent&#45;&gt;PublicModule</title>
<path fill="none" stroke="black" d="M1459,-122.12C1459,-136.78 1459,-155 1459,-155 1459,-155 1332.12,-155 1332.12,-155"/>
<polygon fill="black" stroke="black" points="1332.12,-151.5 1322.12,-155 1332.12,-158.5 1332.12,-151.5"/>
</g>
<!-- GrafoOutgoingComponent -->
<g id="node5" class="node">
<title>GrafoOutgoingComponent</title>
<polygon fill="#ffffb3" stroke="black" points="1357.36,-122 1190.64,-122 1190.64,-86 1357.36,-86 1357.36,-122"/>
<text text-anchor="middle" x="1274" y="-99.8" font-family="Times,serif" font-size="14.00">GrafoOutgoingComponent</text>
</g>
<!-- GrafoOutgoingComponent&#45;&gt;PublicModule -->
<g id="edge5" class="edge">
<title>GrafoOutgoingComponent&#45;&gt;PublicModule</title>
<path fill="none" stroke="black" d="M1274,-122.11C1274,-122.11 1274,-140.99 1274,-140.99"/>
<polygon fill="black" stroke="black" points="1270.5,-140.99 1274,-150.99 1277.5,-140.99 1270.5,-140.99"/>
</g>
<!-- HeaderNavComponent -->
<g id="node6" class="node">
<title>HeaderNavComponent</title>
<polygon fill="#ffffb3" stroke="black" points="1172.56,-122 1027.44,-122 1027.44,-86 1172.56,-86 1172.56,-122"/>
<text text-anchor="middle" x="1100" y="-99.8" font-family="Times,serif" font-size="14.00">HeaderNavComponent</text>
</g>
<!-- HeaderNavComponent&#45;&gt;PublicModule -->
<g id="edge6" class="edge">
<title>HeaderNavComponent&#45;&gt;PublicModule</title>
<path fill="none" stroke="black" d="M1100,-122.12C1100,-136.78 1100,-155 1100,-155 1100,-155 1215.99,-155 1215.99,-155"/>
<polygon fill="black" stroke="black" points="1215.99,-158.5 1225.99,-155 1215.99,-151.5 1215.99,-158.5"/>
</g>
<!-- HomeComponent -->
<g id="node7" class="node">
<title>HomeComponent</title>
<polygon fill="#ffffb3" stroke="black" points="1009.55,-122 894.45,-122 894.45,-86 1009.55,-86 1009.55,-122"/>
<text text-anchor="middle" x="952" y="-99.8" font-family="Times,serif" font-size="14.00">HomeComponent</text>
</g>
<!-- HomeComponent&#45;&gt;PublicModule -->
<g id="edge7" class="edge">
<title>HomeComponent&#45;&gt;PublicModule</title>
<path fill="none" stroke="black" d="M952,-122.01C952,-138.05 952,-159 952,-159 952,-159 1216.14,-159 1216.14,-159"/>
<polygon fill="black" stroke="black" points="1216.14,-162.5 1226.14,-159 1216.14,-155.5 1216.14,-162.5"/>
</g>
<!-- ModalInfo -->
<g id="node8" class="node">
<title>ModalInfo</title>
<polygon fill="#ffffb3" stroke="black" points="875.87,-122 800.13,-122 800.13,-86 875.87,-86 875.87,-122"/>
<text text-anchor="middle" x="838" y="-99.8" font-family="Times,serif" font-size="14.00">ModalInfo</text>
</g>
<!-- ModalInfo&#45;&gt;PublicModule -->
<g id="edge8" class="edge">
<title>ModalInfo&#45;&gt;PublicModule</title>
<path fill="none" stroke="black" d="M838,-122.02C838,-139.37 838,-163 838,-163 838,-163 1216.09,-163 1216.09,-163"/>
<polygon fill="black" stroke="black" points="1216.09,-166.5 1226.09,-163 1216.09,-159.5 1216.09,-166.5"/>
</g>
<!-- PublicComponent -->
<g id="node9" class="node">
<title>PublicComponent</title>
<polygon fill="#ffffb3" stroke="black" points="782.61,-122 665.39,-122 665.39,-86 782.61,-86 782.61,-122"/>
<text text-anchor="middle" x="724" y="-99.8" font-family="Times,serif" font-size="14.00">PublicComponent</text>
</g>
<!-- PublicComponent&#45;&gt;PublicModule -->
<g id="edge9" class="edge">
<title>PublicComponent&#45;&gt;PublicModule</title>
<path fill="none" stroke="black" d="M724,-122.22C724,-140.83 724,-167 724,-167 724,-167 1216.15,-167 1216.15,-167"/>
<polygon fill="black" stroke="black" points="1216.15,-170.5 1226.15,-167 1216.15,-163.5 1216.15,-170.5"/>
</g>
<!-- TablasAnalisisComponent -->
<g id="node10" class="node">
<title>TablasAnalisisComponent</title>
<polygon fill="#ffffb3" stroke="black" points="647.03,-122 482.97,-122 482.97,-86 647.03,-86 647.03,-122"/>
<text text-anchor="middle" x="565" y="-99.8" font-family="Times,serif" font-size="14.00">TablasAnalisisComponent</text>
</g>
<!-- TablasAnalisisComponent&#45;&gt;PublicModule -->
<g id="edge10" class="edge">
<title>TablasAnalisisComponent&#45;&gt;PublicModule</title>
<path fill="none" stroke="black" d="M565,-122.31C565,-142.15 565,-171 565,-171 565,-171 1216.1,-171 1216.1,-171"/>
<polygon fill="black" stroke="black" points="1216.1,-174.5 1226.1,-171 1216.1,-167.5 1216.1,-174.5"/>
</g>
<!-- TemporizadorComponent -->
<g id="node11" class="node">
<title>TemporizadorComponent</title>
<polygon fill="#ffffb3" stroke="black" points="464.13,-122 303.87,-122 303.87,-86 464.13,-86 464.13,-122"/>
<text text-anchor="middle" x="384" y="-99.8" font-family="Times,serif" font-size="14.00">TemporizadorComponent</text>
</g>
<!-- TemporizadorComponent&#45;&gt;PublicModule -->
<g id="edge11" class="edge">
<title>TemporizadorComponent&#45;&gt;PublicModule</title>
<path fill="none" stroke="black" d="M384,-122.28C384,-143.32 384,-175 384,-175 384,-175 1216.15,-175 1216.15,-175"/>
<polygon fill="black" stroke="black" points="1216.15,-178.5 1226.15,-175 1216.15,-171.5 1216.15,-178.5"/>
</g>
<!-- PublicRoutingModule -->
<g id="node13" class="node">
<title>PublicRoutingModule</title>
<polygon fill="#8dd3c7" stroke="black" points="280.45,-122 277.45,-126 256.45,-126 253.45,-122 139.55,-122 139.55,-86 280.45,-86 280.45,-122"/>
<text text-anchor="middle" x="210" y="-99.8" font-family="Times,serif" font-size="14.00">PublicRoutingModule</text>
</g>
<!-- PublicRoutingModule&#45;&gt;PublicModule -->
<g id="edge12" class="edge">
<title>PublicRoutingModule&#45;&gt;PublicModule</title>
<path fill="none" stroke="black" d="M210,-122.16C210,-144.35 210,-179 210,-179 210,-179 1216.22,-179 1216.22,-179"/>
<polygon fill="black" stroke="black" points="1216.22,-182.5 1226.22,-179 1216.22,-175.5 1216.22,-182.5"/>
</g>
<!-- SharedModule -->
<g id="node14" class="node">
<title>SharedModule</title>
<polygon fill="#8dd3c7" stroke="black" points="122.42,-122 119.42,-126 98.42,-126 95.42,-122 23.58,-122 23.58,-86 122.42,-86 122.42,-122"/>
<text text-anchor="middle" x="73" y="-99.8" font-family="Times,serif" font-size="14.00">SharedModule</text>
</g>
<!-- SharedModule&#45;&gt;PublicModule -->
<g id="edge13" class="edge">
<title>SharedModule&#45;&gt;PublicModule</title>
<path fill="none" stroke="black" d="M73,-122.32C73,-145.66 73,-183 73,-183 73,-183 1216.18,-183 1216.18,-183"/>
<polygon fill="black" stroke="black" points="1216.18,-186.5 1226.18,-183 1216.18,-179.5 1216.18,-186.5"/>
</g>
<!-- BooleanServices -->
<g id="node15" class="node">
<title>BooleanServices</title>
<ellipse fill="#fdb462" stroke="black" cx="2678" cy="-104" rx="75.86" ry="18"/>
<text text-anchor="middle" x="2678" y="-99.8" font-family="Times,serif" font-size="14.00">BooleanServices</text>
</g>
<!-- BooleanServices&#45;&gt;PublicModule -->
<g id="edge14" class="edge">
<title>BooleanServices&#45;&gt;PublicModule</title>
<path fill="none" stroke="black" d="M2678,-122.32C2678,-145.66 2678,-183 2678,-183 2678,-183 1331.92,-183 1331.92,-183"/>
<polygon fill="black" stroke="black" points="1331.92,-179.5 1321.92,-183 1331.92,-186.5 1331.92,-179.5"/>
</g>
<!-- MensajesService -->
<g id="node16" class="node">
<title>MensajesService</title>
<ellipse fill="#fdb462" stroke="black" cx="2508" cy="-104" rx="76.42" ry="18"/>
<text text-anchor="middle" x="2508" y="-99.8" font-family="Times,serif" font-size="14.00">MensajesService</text>
</g>
<!-- MensajesService&#45;&gt;PublicModule -->
<g id="edge15" class="edge">
<title>MensajesService&#45;&gt;PublicModule</title>
<path fill="none" stroke="black" d="M2508,-122.16C2508,-144.35 2508,-179 2508,-179 2508,-179 1332,-179 1332,-179"/>
<polygon fill="black" stroke="black" points="1332,-175.5 1322,-179 1332,-182.5 1332,-175.5"/>
</g>
<!-- RestService -->
<g id="node17" class="node">
<title>RestService</title>
<ellipse fill="#fdb462" stroke="black" cx="2356" cy="-104" rx="57.32" ry="18"/>
<text text-anchor="middle" x="2356" y="-99.8" font-family="Times,serif" font-size="14.00">RestService</text>
</g>
<!-- RestService&#45;&gt;PublicModule -->
<g id="edge16" class="edge">
<title>RestService&#45;&gt;PublicModule</title>
<path fill="none" stroke="black" d="M2356,-122.28C2356,-143.32 2356,-175 2356,-175 2356,-175 1331.89,-175 1331.89,-175"/>
<polygon fill="black" stroke="black" points="1331.89,-171.5 1321.89,-175 1331.89,-178.5 1331.89,-171.5"/>
</g>
<!-- TemaService -->
<g id="node18" class="node">
<title>TemaService</title>
<ellipse fill="#fdb462" stroke="black" cx="2219" cy="-104" rx="61.95" ry="18"/>
<text text-anchor="middle" x="2219" y="-99.8" font-family="Times,serif" font-size="14.00">TemaService</text>
</g>
<!-- TemaService&#45;&gt;PublicModule -->
<g id="edge17" class="edge">
<title>TemaService&#45;&gt;PublicModule</title>
<path fill="none" stroke="black" d="M2219,-122.31C2219,-142.15 2219,-171 2219,-171 2219,-171 1331.84,-171 1331.84,-171"/>
<polygon fill="black" stroke="black" points="1331.84,-167.5 1321.84,-171 1331.84,-174.5 1331.84,-167.5"/>
</g>
</g>
</svg>
