<?xml version="1.0" encoding="UTF-8" standalone="no"?>
<!DOCTYPE svg PUBLIC "-//W3C//DTD SVG 1.1//EN"
 "http://www.w3.org/Graphics/SVG/1.1/DTD/svg11.dtd">
<!-- Generated by graphviz version 2.47.0 (20210316.0004)
 -->
<!-- Title: dependencies Pages: 1 -->
<svg width="3190pt" height="360pt"
 viewBox="0.00 0.00 3190.00 360.00" xmlns="http://www.w3.org/2000/svg" xmlns:xlink="http://www.w3.org/1999/xlink">
<g id="graph0" class="graph" transform="scale(1 1) rotate(0) translate(4 356)">
<title>dependencies</title>
<polygon fill="white" stroke="transparent" points="-4,4 -4,-356 3186,-356 3186,4 -4,4"/>
<text text-anchor="start" x="1570.01" y="-42.4" font-family="Times-12" font-weight="bold" font-size="14.00">Legend</text>
<polygon fill="#ffffb3" stroke="transparent" points="1357,-10 1357,-30 1377,-30 1377,-10 1357,-10"/>
<text text-anchor="start" x="1380.63" y="-15.4" font-family="Times-12" font-size="14.00"> &#160;Declarations</text>
<polygon fill="#8dd3c7" stroke="transparent" points="1470,-10 1470,-30 1490,-30 1490,-10 1470,-10"/>
<text text-anchor="start" x="1493.73" y="-15.4" font-family="Times-12" font-size="14.00"> &#160;Module</text>
<polygon fill="#80b1d3" stroke="transparent" points="1556,-10 1556,-30 1576,-30 1576,-10 1556,-10"/>
<text text-anchor="start" x="1579.78" y="-15.4" font-family="Times-12" font-size="14.00"> &#160;Bootstrap</text>
<polygon fill="#fdb462" stroke="transparent" points="1653,-10 1653,-30 1673,-30 1673,-10 1653,-10"/>
<text text-anchor="start" x="1676.67" y="-15.4" font-family="Times-12" font-size="14.00"> &#160;Providers</text>
<polygon fill="#fb8072" stroke="transparent" points="1749,-10 1749,-30 1769,-30 1769,-10 1749,-10"/>
<text text-anchor="start" x="1772.73" y="-15.4" font-family="Times-12" font-size="14.00"> &#160;Exports</text>
<g id="clust1" class="cluster">
<title>cluster_AppModule</title>
<polygon fill="none" stroke="black" stroke-dasharray="1,5" points="2662,-146 2662,-344 3174,-344 3174,-146 2662,-146"/>
</g>
<g id="clust2" class="cluster">
<title>cluster_AppModule_declarations</title>
<polygon fill="none" stroke="black" points="3044,-154 3044,-206 3166,-206 3166,-154 3044,-154"/>
</g>
<g id="clust4" class="cluster">
<title>cluster_AppModule_imports</title>
<polygon fill="none" stroke="black" points="2670,-154 2670,-206 3036,-206 3036,-154 2670,-154"/>
</g>
<g id="clust6" class="cluster">
<title>cluster_AppModule_bootstrap</title>
<polygon fill="none" stroke="black" points="2839,-284 2839,-336 2963,-336 2963,-284 2839,-284"/>
</g>
<g id="clust26" class="cluster">
<title>cluster_PublicModule</title>
<polygon fill="none" stroke="black" stroke-dasharray="1,5" points="8,-146 8,-271 2654,-271 2654,-146 8,-146"/>
</g>
<g id="clust27" class="cluster">
<title>cluster_PublicModule_declarations</title>
<polygon fill="none" stroke="black" points="801,-154 801,-206 2646,-206 2646,-154 801,-154"/>
</g>
<g id="clust39" class="cluster">
<title>cluster_PublicModule_imports</title>
<polygon fill="none" stroke="black" points="637,-154 637,-206 793,-206 793,-154 637,-154"/>
</g>
<g id="clust42" class="cluster">
<title>cluster_PublicModule_providers</title>
<polygon fill="none" stroke="black" points="16,-154 16,-206 629,-206 629,-154 16,-154"/>
</g>
<g id="clust49" class="cluster">
<title>cluster_SharedModule</title>
<polygon fill="none" stroke="black" stroke-dasharray="1,5" points="2524,-70 2524,-138 2958,-138 2958,-70 2524,-70"/>
</g>
<g id="clust50" class="cluster">
<title>cluster_SharedModule_declarations</title>
<polygon fill="none" stroke="black" points="2796,-78 2796,-130 2950,-130 2950,-78 2796,-78"/>
</g>
<g id="clust52" class="cluster">
<title>cluster_SharedModule_imports</title>
<polygon fill="none" stroke="black" points="2666,-78 2666,-130 2788,-130 2788,-78 2666,-78"/>
</g>
<g id="clust53" class="cluster">
<title>cluster_SharedModule_exports</title>
<polygon fill="none" stroke="black" points="2532,-78 2532,-130 2658,-130 2658,-78 2532,-78"/>
</g>
<!-- AppComponent -->
<g id="node1" class="node">
<title>AppComponent</title>
<polygon fill="#ffffb3" stroke="black" points="3157.94,-198 3052.06,-198 3052.06,-162 3157.94,-162 3157.94,-198"/>
<text text-anchor="middle" x="3105" y="-175.8" font-family="Times,serif" font-size="14.00">AppComponent</text>
</g>
<!-- AppModule -->
<g id="node2" class="node">
<title>AppModule</title>
<polygon fill="#8dd3c7" stroke="black" points="2942.66,-263 2939.66,-267 2918.66,-267 2915.66,-263 2859.34,-263 2859.34,-227 2942.66,-227 2942.66,-263"/>
<text text-anchor="middle" x="2901" y="-240.8" font-family="Times,serif" font-size="14.00">AppModule</text>
</g>
<!-- AppComponent&#45;&gt;AppModule -->
<g id="edge1" class="edge">
<title>AppComponent&#45;&gt;AppModule</title>
<path fill="none" stroke="black" d="M3105,-198.11C3105,-217.34 3105,-245 3105,-245 3105,-245 2952.77,-245 2952.77,-245"/>
<polygon fill="black" stroke="black" points="2952.77,-241.5 2942.77,-245 2952.77,-248.5 2952.77,-241.5"/>
</g>
<!-- AppComponent  -->
<g id="node6" class="node">
<title>AppComponent </title>
<polygon fill="#80b1d3" stroke="black" points="2955.44,-328 2846.56,-328 2846.56,-292 2955.44,-292 2955.44,-328"/>
<text text-anchor="middle" x="2901" y="-305.8" font-family="Times,serif" font-size="14.00">AppComponent </text>
</g>
<!-- AppModule&#45;&gt;AppComponent  -->
<g id="edge5" class="edge">
<title>AppModule&#45;&gt;AppComponent </title>
<path fill="none" stroke="black" stroke-dasharray="1,5" d="M2901,-263.11C2901,-263.11 2901,-281.99 2901,-281.99"/>
<polygon fill="black" stroke="black" points="2897.5,-281.99 2901,-291.99 2904.5,-281.99 2897.5,-281.99"/>
</g>
<!-- AppRoutingModule -->
<g id="node3" class="node">
<title>AppRoutingModule</title>
<polygon fill="#8dd3c7" stroke="black" points="3028.27,-198 3025.27,-202 3004.27,-202 3001.27,-198 2899.73,-198 2899.73,-162 3028.27,-162 3028.27,-198"/>
<text text-anchor="middle" x="2964" y="-175.8" font-family="Times,serif" font-size="14.00">AppRoutingModule</text>
</g>
<!-- AppRoutingModule&#45;&gt;AppModule -->
<g id="edge2" class="edge">
<title>AppRoutingModule&#45;&gt;AppModule</title>
<path fill="none" stroke="black" d="M2921.22,-198.11C2921.22,-198.11 2921.22,-216.99 2921.22,-216.99"/>
<polygon fill="black" stroke="black" points="2917.72,-216.99 2921.22,-226.99 2924.72,-216.99 2917.72,-216.99"/>
</g>
<!-- CoreModule -->
<g id="node4" class="node">
<title>CoreModule</title>
<polygon fill="#8dd3c7" stroke="black" points="2881.26,-198 2878.26,-202 2857.26,-202 2854.26,-198 2794.74,-198 2794.74,-162 2881.26,-162 2881.26,-198"/>
<text text-anchor="middle" x="2838" y="-175.8" font-family="Times,serif" font-size="14.00">CoreModule</text>
</g>
<!-- CoreModule&#45;&gt;AppModule -->
<g id="edge3" class="edge">
<title>CoreModule&#45;&gt;AppModule</title>
<path fill="none" stroke="black" d="M2870.28,-198.11C2870.28,-198.11 2870.28,-216.99 2870.28,-216.99"/>
<polygon fill="black" stroke="black" points="2866.78,-216.99 2870.28,-226.99 2873.78,-216.99 2866.78,-216.99"/>
</g>
<!-- SharedModule -->
<g id="node5" class="node">
<title>SharedModule</title>
<polygon fill="#8dd3c7" stroke="black" points="2776.42,-198 2773.42,-202 2752.42,-202 2749.42,-198 2677.58,-198 2677.58,-162 2776.42,-162 2776.42,-198"/>
<text text-anchor="middle" x="2727" y="-175.8" font-family="Times,serif" font-size="14.00">SharedModule</text>
</g>
<!-- SharedModule&#45;&gt;AppModule -->
<g id="edge4" class="edge">
<title>SharedModule&#45;&gt;AppModule</title>
<path fill="none" stroke="black" d="M2743.4,-198.32C2743.4,-221.66 2743.4,-259 2743.4,-259 2743.4,-259 2849.18,-259 2849.18,-259"/>
<polygon fill="black" stroke="black" points="2849.18,-262.5 2859.18,-259 2849.18,-255.5 2849.18,-262.5"/>
</g>
<!-- PublicModule -->
<g id="node18" class="node">
<title>PublicModule</title>
<polygon fill="#8dd3c7" stroke="black" points="1390.83,-263 1387.83,-267 1366.83,-267 1363.83,-263 1295.17,-263 1295.17,-227 1390.83,-227 1390.83,-263"/>
<text text-anchor="middle" x="1343" y="-240.8" font-family="Times,serif" font-size="14.00">PublicModule</text>
</g>
<!-- SharedModule&#45;&gt;PublicModule -->
<g id="edge18" class="edge">
<title>SharedModule&#45;&gt;PublicModule</title>
<path fill="none" stroke="black" d="M2710.6,-198.16C2710.6,-220.35 2710.6,-255 2710.6,-255 2710.6,-255 1400.87,-255 1400.87,-255"/>
<polygon fill="black" stroke="black" points="1400.87,-251.5 1390.87,-255 1400.87,-258.5 1400.87,-251.5"/>
</g>
<!-- MaterialModule  -->
<g id="node26" class="node">
<title>MaterialModule </title>
<polygon fill="#fb8072" stroke="black" points="2650.47,-122 2539.53,-122 2539.53,-86 2650.47,-86 2650.47,-122"/>
<text text-anchor="middle" x="2595" y="-99.8" font-family="Times,serif" font-size="14.00">MaterialModule </text>
</g>
<!-- SharedModule&#45;&gt;MaterialModule  -->
<g id="edge25" class="edge">
<title>SharedModule&#45;&gt;MaterialModule </title>
<path fill="none" stroke="black" stroke-dasharray="5,2" d="M2677.44,-180C2659.82,-180 2644.27,-180 2644.27,-180 2644.27,-180 2644.27,-132.01 2644.27,-132.01"/>
<polygon fill="black" stroke="black" points="2647.77,-132.01 2644.27,-122.01 2640.77,-132.01 2647.77,-132.01"/>
</g>
<!-- GraficasDinamicasComponent -->
<g id="node7" class="node">
<title>GraficasDinamicasComponent</title>
<polygon fill="#ffffb3" stroke="black" points="2638.11,-198 2449.89,-198 2449.89,-162 2638.11,-162 2638.11,-198"/>
<text text-anchor="middle" x="2544" y="-175.8" font-family="Times,serif" font-size="14.00">GraficasDinamicasComponent</text>
</g>
<!-- GraficasDinamicasComponent&#45;&gt;PublicModule -->
<g id="edge6" class="edge">
<title>GraficasDinamicasComponent&#45;&gt;PublicModule</title>
<path fill="none" stroke="black" d="M2544,-198.28C2544,-219.32 2544,-251 2544,-251 2544,-251 1400.82,-251 1400.82,-251"/>
<polygon fill="black" stroke="black" points="1400.82,-247.5 1390.82,-251 1400.82,-254.5 1400.82,-247.5"/>
</g>
<!-- GraficasEstaticasComponent -->
<g id="node8" class="node">
<title>GraficasEstaticasComponent</title>
<polygon fill="#ffffb3" stroke="black" points="2431.5,-198 2252.5,-198 2252.5,-162 2431.5,-162 2431.5,-198"/>
<text text-anchor="middle" x="2342" y="-175.8" font-family="Times,serif" font-size="14.00">GraficasEstaticasComponent</text>
</g>
<!-- GraficasEstaticasComponent&#45;&gt;PublicModule -->
<g id="edge7" class="edge">
<title>GraficasEstaticasComponent&#45;&gt;PublicModule</title>
<path fill="none" stroke="black" d="M2342,-198.31C2342,-218.15 2342,-247 2342,-247 2342,-247 1400.85,-247 1400.85,-247"/>
<polygon fill="black" stroke="black" points="1400.85,-243.5 1390.85,-247 1400.85,-250.5 1400.85,-243.5"/>
</g>
<!-- GrafoCompletoComponent -->
<g id="node9" class="node">
<title>GrafoCompletoComponent</title>
<polygon fill="#ffffb3" stroke="black" points="2234.7,-198 2065.3,-198 2065.3,-162 2234.7,-162 2234.7,-198"/>
<text text-anchor="middle" x="2150" y="-175.8" font-family="Times,serif" font-size="14.00">GrafoCompletoComponent</text>
</g>
<!-- GrafoCompletoComponent&#45;&gt;PublicModule -->
<g id="edge8" class="edge">
<title>GrafoCompletoComponent&#45;&gt;PublicModule</title>
<path fill="none" stroke="black" d="M2150,-198.22C2150,-216.83 2150,-243 2150,-243 2150,-243 1400.77,-243 1400.77,-243"/>
<polygon fill="black" stroke="black" points="1400.77,-239.5 1390.77,-243 1400.77,-246.5 1400.77,-239.5"/>
</g>
<!-- GrafoIncomingComponent -->
<g id="node10" class="node">
<title>GrafoIncomingComponent</title>
<polygon fill="#ffffb3" stroke="black" points="2047.63,-198 1880.37,-198 1880.37,-162 2047.63,-162 2047.63,-198"/>
<text text-anchor="middle" x="1964" y="-175.8" font-family="Times,serif" font-size="14.00">GrafoIncomingComponent</text>
</g>
<!-- GrafoIncomingComponent&#45;&gt;PublicModule -->
<g id="edge9" class="edge">
<title>GrafoIncomingComponent&#45;&gt;PublicModule</title>
<path fill="none" stroke="black" d="M1964,-198.02C1964,-215.37 1964,-239 1964,-239 1964,-239 1400.7,-239 1400.7,-239"/>
<polygon fill="black" stroke="black" points="1400.7,-235.5 1390.7,-239 1400.7,-242.5 1400.7,-235.5"/>
</g>
<!-- GrafoOutgoingComponent -->
<g id="node11" class="node">
<title>GrafoOutgoingComponent</title>
<polygon fill="#ffffb3" stroke="black" points="1862.36,-198 1695.64,-198 1695.64,-162 1862.36,-162 1862.36,-198"/>
<text text-anchor="middle" x="1779" y="-175.8" font-family="Times,serif" font-size="14.00">GrafoOutgoingComponent</text>
</g>
<!-- GrafoOutgoingComponent&#45;&gt;PublicModule -->
<g id="edge10" class="edge">
<title>GrafoOutgoingComponent&#45;&gt;PublicModule</title>
<path fill="none" stroke="black" d="M1779,-198.01C1779,-214.05 1779,-235 1779,-235 1779,-235 1400.91,-235 1400.91,-235"/>
<polygon fill="black" stroke="black" points="1400.91,-231.5 1390.91,-235 1400.91,-238.5 1400.91,-231.5"/>
</g>
<!-- HeaderNavComponent -->
<g id="node12" class="node">
<title>HeaderNavComponent</title>
<polygon fill="#ffffb3" stroke="black" points="1677.56,-198 1532.44,-198 1532.44,-162 1677.56,-162 1677.56,-198"/>
<text text-anchor="middle" x="1605" y="-175.8" font-family="Times,serif" font-size="14.00">HeaderNavComponent</text>
</g>
<!-- HeaderNavComponent&#45;&gt;PublicModule -->
<g id="edge11" class="edge">
<title>HeaderNavComponent&#45;&gt;PublicModule</title>
<path fill="none" stroke="black" d="M1605,-198.12C1605,-212.78 1605,-231 1605,-231 1605,-231 1400.75,-231 1400.75,-231"/>
<polygon fill="black" stroke="black" points="1400.75,-227.5 1390.75,-231 1400.75,-234.5 1400.75,-227.5"/>
</g>
<!-- HomeComponent -->
<g id="node13" class="node">
<title>HomeComponent</title>
<polygon fill="#ffffb3" stroke="black" points="1514.55,-198 1399.45,-198 1399.45,-162 1514.55,-162 1514.55,-198"/>
<text text-anchor="middle" x="1457" y="-175.8" font-family="Times,serif" font-size="14.00">HomeComponent</text>
</g>
<!-- HomeComponent&#45;&gt;PublicModule -->
<g id="edge12" class="edge">
<title>HomeComponent&#45;&gt;PublicModule</title>
<path fill="none" stroke="black" d="M1399.19,-180C1391.28,-180 1385.8,-180 1385.8,-180 1385.8,-180 1385.8,-216.89 1385.8,-216.89"/>
<polygon fill="black" stroke="black" points="1382.3,-216.89 1385.8,-226.89 1389.3,-216.89 1382.3,-216.89"/>
</g>
<!-- ModalInfo -->
<g id="node14" class="node">
<title>ModalInfo</title>
<polygon fill="#ffffb3" stroke="black" points="1380.87,-198 1305.13,-198 1305.13,-162 1380.87,-162 1380.87,-198"/>
<text text-anchor="middle" x="1343" y="-175.8" font-family="Times,serif" font-size="14.00">ModalInfo</text>
</g>
<!-- ModalInfo&#45;&gt;PublicModule -->
<g id="edge13" class="edge">
<title>ModalInfo&#45;&gt;PublicModule</title>
<path fill="none" stroke="black" d="M1343,-198.11C1343,-198.11 1343,-216.99 1343,-216.99"/>
<polygon fill="black" stroke="black" points="1339.5,-216.99 1343,-226.99 1346.5,-216.99 1339.5,-216.99"/>
</g>
<!-- PublicComponent -->
<g id="node15" class="node">
<title>PublicComponent</title>
<polygon fill="#ffffb3" stroke="black" points="1287.61,-198 1170.39,-198 1170.39,-162 1287.61,-162 1287.61,-198"/>
<text text-anchor="middle" x="1229" y="-175.8" font-family="Times,serif" font-size="14.00">PublicComponent</text>
</g>
<!-- PublicComponent&#45;&gt;PublicModule -->
<g id="edge14" class="edge">
<title>PublicComponent&#45;&gt;PublicModule</title>
<path fill="none" stroke="black" d="M1287.8,-180C1295.18,-180 1300.2,-180 1300.2,-180 1300.2,-180 1300.2,-216.89 1300.2,-216.89"/>
<polygon fill="black" stroke="black" points="1296.7,-216.89 1300.2,-226.89 1303.7,-216.89 1296.7,-216.89"/>
</g>
<!-- TablasAnalisisComponent -->
<g id="node16" class="node">
<title>TablasAnalisisComponent</title>
<polygon fill="#ffffb3" stroke="black" points="1152.03,-198 987.97,-198 987.97,-162 1152.03,-162 1152.03,-198"/>
<text text-anchor="middle" x="1070" y="-175.8" font-family="Times,serif" font-size="14.00">TablasAnalisisComponent</text>
</g>
<!-- TablasAnalisisComponent&#45;&gt;PublicModule -->
<g id="edge15" class="edge">
<title>TablasAnalisisComponent&#45;&gt;PublicModule</title>
<path fill="none" stroke="black" d="M1070,-198.19C1070,-213.18 1070,-232 1070,-232 1070,-232 1285.13,-232 1285.13,-232"/>
<polygon fill="black" stroke="black" points="1285.13,-235.5 1295.13,-232 1285.13,-228.5 1285.13,-235.5"/>
</g>
<!-- TemporizadorComponent -->
<g id="node17" class="node">
<title>TemporizadorComponent</title>
<polygon fill="#ffffb3" stroke="black" points="969.13,-198 808.87,-198 808.87,-162 969.13,-162 969.13,-198"/>
<text text-anchor="middle" x="889" y="-175.8" font-family="Times,serif" font-size="14.00">TemporizadorComponent</text>
</g>
<!-- TemporizadorComponent&#45;&gt;PublicModule -->
<g id="edge16" class="edge">
<title>TemporizadorComponent&#45;&gt;PublicModule</title>
<path fill="none" stroke="black" d="M889,-198.03C889,-214.4 889,-236 889,-236 889,-236 1285.27,-236 1285.27,-236"/>
<polygon fill="black" stroke="black" points="1285.27,-239.5 1295.27,-236 1285.27,-232.5 1285.27,-239.5"/>
</g>
<!-- PublicRoutingModule -->
<g id="node19" class="node">
<title>PublicRoutingModule</title>
<polygon fill="#8dd3c7" stroke="black" points="785.45,-198 782.45,-202 761.45,-202 758.45,-198 644.55,-198 644.55,-162 785.45,-162 785.45,-198"/>
<text text-anchor="middle" x="715" y="-175.8" font-family="Times,serif" font-size="14.00">PublicRoutingModule</text>
</g>
<!-- PublicRoutingModule&#45;&gt;PublicModule -->
<g id="edge17" class="edge">
<title>PublicRoutingModule&#45;&gt;PublicModule</title>
<path fill="none" stroke="black" d="M715,-198.3C715,-216.27 715,-241 715,-241 715,-241 1285.28,-241 1285.28,-241"/>
<polygon fill="black" stroke="black" points="1285.28,-244.5 1295.28,-241 1285.28,-237.5 1285.28,-244.5"/>
</g>
<!-- BooleanServices -->
<g id="node20" class="node">
<title>BooleanServices</title>
<ellipse fill="#fdb462" stroke="black" cx="545" cy="-180" rx="75.86" ry="18"/>
<text text-anchor="middle" x="545" y="-175.8" font-family="Times,serif" font-size="14.00">BooleanServices</text>
</g>
<!-- BooleanServices&#45;&gt;PublicModule -->
<g id="edge19" class="edge">
<title>BooleanServices&#45;&gt;PublicModule</title>
<path fill="none" stroke="black" d="M545,-198.11C545,-217.34 545,-245 545,-245 545,-245 1285.18,-245 1285.18,-245"/>
<polygon fill="black" stroke="black" points="1285.18,-248.5 1295.18,-245 1285.18,-241.5 1285.18,-248.5"/>
</g>
<!-- MensajesService -->
<g id="node21" class="node">
<title>MensajesService</title>
<ellipse fill="#fdb462" stroke="black" cx="375" cy="-180" rx="76.42" ry="18"/>
<text text-anchor="middle" x="375" y="-175.8" font-family="Times,serif" font-size="14.00">MensajesService</text>
</g>
<!-- MensajesService&#45;&gt;PublicModule -->
<g id="edge20" class="edge">
<title>MensajesService&#45;&gt;PublicModule</title>
<path fill="none" stroke="black" d="M375,-198.03C375,-218.77 375,-250 375,-250 375,-250 1285.33,-250 1285.33,-250"/>
<polygon fill="black" stroke="black" points="1285.33,-253.5 1295.33,-250 1285.33,-246.5 1285.33,-253.5"/>
</g>
<!-- RestService -->
<g id="node22" class="node">
<title>RestService</title>
<ellipse fill="#fdb462" stroke="black" cx="223" cy="-180" rx="57.32" ry="18"/>
<text text-anchor="middle" x="223" y="-175.8" font-family="Times,serif" font-size="14.00">RestService</text>
</g>
<!-- RestService&#45;&gt;PublicModule -->
<g id="edge21" class="edge">
<title>RestService&#45;&gt;PublicModule</title>
<path fill="none" stroke="black" d="M223,-198.29C223,-220.21 223,-254 223,-254 223,-254 1285.23,-254 1285.23,-254"/>
<polygon fill="black" stroke="black" points="1285.23,-257.5 1295.23,-254 1285.23,-250.5 1285.23,-257.5"/>
</g>
<!-- TemaService -->
<g id="node23" class="node">
<title>TemaService</title>
<ellipse fill="#fdb462" stroke="black" cx="86" cy="-180" rx="61.95" ry="18"/>
<text text-anchor="middle" x="86" y="-175.8" font-family="Times,serif" font-size="14.00">TemaService</text>
</g>
<!-- TemaService&#45;&gt;PublicModule -->
<g id="edge22" class="edge">
<title>TemaService&#45;&gt;PublicModule</title>
<path fill="none" stroke="black" d="M86,-198.32C86,-221.66 86,-259 86,-259 86,-259 1285.26,-259 1285.26,-259"/>
<polygon fill="black" stroke="black" points="1285.26,-262.5 1295.26,-259 1285.26,-255.5 1285.26,-262.5"/>
</g>
<!-- NotFoundComponent -->
<g id="node24" class="node">
<title>NotFoundComponent</title>
<polygon fill="#ffffb3" stroke="black" points="2942.11,-122 2803.89,-122 2803.89,-86 2942.11,-86 2942.11,-122"/>
<text text-anchor="middle" x="2873" y="-99.8" font-family="Times,serif" font-size="14.00">NotFoundComponent</text>
</g>
<!-- NotFoundComponent&#45;&gt;SharedModule -->
<g id="edge23" class="edge">
<title>NotFoundComponent&#45;&gt;SharedModule</title>
<path fill="none" stroke="black" d="M2803.62,-104C2794.12,-104 2787.55,-104 2787.55,-104 2787.55,-104 2787.55,-180 2787.55,-180 2787.55,-180 2786.44,-180 2786.44,-180"/>
<polygon fill="black" stroke="black" points="2786.45,-176.5 2776.45,-180 2786.45,-183.5 2786.45,-176.5"/>
</g>
<!-- MaterialModule -->
<g id="node25" class="node">
<title>MaterialModule</title>
<polygon fill="#8dd3c7" stroke="black" points="2780.47,-122 2777.47,-126 2756.47,-126 2753.47,-122 2673.53,-122 2673.53,-86 2780.47,-86 2780.47,-122"/>
<text text-anchor="middle" x="2727" y="-99.8" font-family="Times,serif" font-size="14.00">MaterialModule</text>
</g>
<!-- MaterialModule&#45;&gt;SharedModule -->
<g id="edge24" class="edge">
<title>MaterialModule&#45;&gt;SharedModule</title>
<path fill="none" stroke="black" d="M2727,-122.01C2727,-122.01 2727,-151.85 2727,-151.85"/>
<polygon fill="black" stroke="black" points="2723.5,-151.85 2727,-161.85 2730.5,-151.85 2723.5,-151.85"/>
</g>
</g>
</svg>
